HIERARCHY
ROOT Hips
{
  OFFSET 179.979 97.3047 303.174
  CHANNELS 6 Xposition Yposition Zposition Zrotation Xrotation Yrotation
  JOINT Spine
  {
    OFFSET 0.000859786 9.92346 -1.22733
    CHANNELS 3 Zrotation Xrotation Yrotation
    JOINT Spine1
    {
      OFFSET 0 11.732 0
      CHANNELS 3 Zrotation Xrotation Yrotation
      JOINT Spine2
      {
        OFFSET 0 13.4588 0
        CHANNELS 3 Zrotation Xrotation Yrotation
        JOINT Neck
        {
          OFFSET 2.54812e-05 15.0278 0.877907
          CHANNELS 3 Zrotation Xrotation Yrotation
          JOINT Head
          {
            OFFSET 0 10.3218 3.14243
            CHANNELS 3 Zrotation Xrotation Yrotation
            End Site
            {
              OFFSET 0 0 0
            }
          }
        }
        JOINT LeftShoulder
        {
          OFFSET 6.10582 9.10629 0.757062
          CHANNELS 3 Zrotation Xrotation Yrotation
          JOINT LeftArm
          {
            OFFSET 0 12.9223 0
            CHANNELS 3 Zrotation Xrotation Yrotation
            JOINT LeftForeArm
            {
              OFFSET 0 27.4047 0
              CHANNELS 3 Zrotation Xrotation Yrotation
              JOINT LeftHand
              {
                OFFSET -1.28204e-05 27.6145 0
                CHANNELS 3 Zrotation Xrotation Yrotation
                End Site
                {
                  OFFSET 0 0 0
                }
              }
            }
          }
        }
        JOINT RightShoulder
        {
          OFFSET -6.1057 9.10638 0.757076
          CHANNELS 3 Zrotation Xrotation Yrotation
          JOINT RightArm
          {
            OFFSET 0 12.9223 0
            CHANNELS 3 Zrotation Xrotation Yrotation
            JOINT RightForeArm
            {
              OFFSET 0 27.4047 0
              CHANNELS 3 Zrotation Xrotation Yrotation
              JOINT RightHand
              {
                OFFSET 1.28428e-05 27.6145 1.44975e-05
                CHANNELS 3 Zrotation Xrotation Yrotation
                End Site
                {
                  OFFSET 0 0 0
                }
              }
            }
          }
        }
      }
    }
  }
  JOINT LeftUpLeg
  {
    OFFSET 9.12387 -6.65719 -0.0554031
    CHANNELS 3 Zrotation Xrotation Yrotation
    JOINT LeftLeg
    {
      OFFSET 0 40.5994 0
      CHANNELS 3 Zrotation Xrotation Yrotation
      JOINT LeftFoot
      {
        OFFSET 0 42.099 0
        CHANNELS 3 Zrotation Xrotation Yrotation
        JOINT LeftToeBase
        {
          OFFSET 0 15.7216 0
          CHANNELS 3 Zrotation Xrotation Yrotation
          End Site
          {
            OFFSET 0 0 0
          }
        }
      }
    }
  }
  JOINT RightUpLeg
  {
    OFFSET -9.12503 -6.6556 -0.0553527
    CHANNELS 3 Zrotation Xrotation Yrotation
    JOINT RightLeg
    {
      OFFSET 0 40.5994 0
      CHANNELS 3 Zrotation Xrotation Yrotation
      JOINT RightFoot
      {
        OFFSET 0 42.099 0
        CHANNELS 3 Zrotation Xrotation Yrotation
        JOINT RightToeBase
        {
          OFFSET 0 15.7216 0
          CHANNELS 3 Zrotation Xrotation Yrotation
          End Site
          {
            OFFSET 0 0 0
          }
        }
      }
    }
  }
}
MOTION
Frames:	16
Frame Time:	0.0333333
-139.433 97.0394 14.4781 4.65063 -4.83086 72.9119 -0.20761 -2.61288 -0.375379 -0.393149 8.72475 -0.6871 -0.309564 15.3187 -0.704232 -6.12766 -12.8547 -13.4276 10.0878 -4.17239 -15.9259 -107.402 -10.2166 91.4981 29.709 56.6195 5.71873 61.6883 -16.6585 -0.322805 -4.0098 -21.2768 14.7517 104.507 -2.87615 -93.0323 -10.3252 59.134 19.8716 -97.724 2.20214 0.141826 -7.07874 -26.8144 -22.5382 -157.542 1.92706 -16.5473 -2.10373 -20.2645 1.08186 -14.4268 69.7617 3.69496 -0.965274 26.367 -3.60229 171.183 8.01487 9.4904 6.58752 -30.7779 12.467 -13.5013 73.2929 22.7462 0.963535 26.3682 3.55537 
-140.043 96.7316 14.7114 4.03862 -3.93381 70.9757 -0.434986 -2.77636 -0.113807 -0.872733 8.39663 -0.0895983 -0.860494 14.9911 -0.0919827 -6.4677 -13.2102 -14.9857 10.5651 -3.81502 -17.5411 -107.492 -10.533 91.4211 27.2436 57.1405 6.70805 63.3796 -15.5828 -0.238417 -3.73348 -18.6646 16.3297 103.593 -3.08563 -92.8842 -17.1678 56.3872 25.8615 -96.4395 1.94724 0.164753 -6.59559 -25.6982 -24.2929 -158.386 2.52412 -19.5428 -1.03641 -22.2189 1.40357 -15.2463 71.1053 4.3157 -0.965274 26.367 -3.60229 171.425 8.73787 7.64287 6.26014 -29.5235 12.3916 -17.7067 75.7225 26.7954 0.963535 26.3682 3.55537 
-140.495 96.172 15.0282 4.13326 -4.59825 69.4821 -0.306338 -2.77002 -0.0273472 -0.619296 8.40905 0.0428304 -0.622887 15.0035 0.0437939 -6.93542 -11.6154 -15.8796 10.9225 -4.55872 -18.6663 -107.082 -10.5972 91.3878 25.0929 57.3559 9.81321 64.0286 -15.5568 -0.221544 -6.04793 -15.9386 15.8995 104.138 -3.43919 -92.8677 -22.5706 52.387 29.7235 -95.3537 1.84542 0.180199 -5.1814 -23.9996 -24.3578 -157.521 1.75865 -19.1194 -1.04031 -23.2579 1.09453 -16.8244 73.4704 5.04596 -0.965274 26.367 -3.60229 173.165 8.23181 4.81703 6.20596 -28.5031 13.1036 -25.5024 77.6803 34.1213 0.963535 26.3682 3.55537 
-140.824 95.8698 15.2455 4.77809 -5.72155 68.0372 -0.0796912 -2.5957 -0.00061012 -0.163594 8.75795 0.0246751 -0.16508 15.3524 0.0254141 -5.51769 -10.53 -16.7803 9.59479 -5.57016 -19.0025 -107.174 -10.373 91.448 24.0447 56.7023 12.9112 62.6502 -15.6715 -0.259605 -6.80945 -15.5402 14.6429 104.667 -4.06414 -92.7852 -26.1133 50.5493 31.484 -95.1258 1.71495 0.186915 -3.58764 -21.8869 -24.2043 -156.465 -0.172843 -17.6659 -2.04763 -22.675 -0.59488 -15.1272 74.6234 2.4216 -0.965274 26.367 -3.60229 174.127 8.10984 3.97288 6.64433 -29.4987 12.8925 -26.3271 77.9776 33.7889 0.963535 26.3682 3.55537 
-141.002 95.8702 15.4412 4.4981 -5.87315 66.6899 0.0878646 -2.71515 -0.206735 0.190713 8.51871 -0.44298 0.245007 15.113 -0.453586 -6.45108 -9.85595 -16.8155 10.9884 -5.70622 -19.5597 -109.505 -10.8215 91.4303 23.6647 54.1033 18.861 58.0694 -17.3628 -0.434161 -7.07279 -17.143 13.559 105.903 -3.5754 -93.0273 -25.9492 50.9028 30.2543 -95.0087 1.40203 0.197712 -5.97614 -22.4246 -25.2146 -155.943 -0.461081 -19.4906 -1.8583 -22.7921 -0.242033 -16.0263 74.0061 2.98299 -0.965274 26.367 -3.60229 174.284 8.85849 5.35967 6.10603 -30.1539 11.2014 -22.1043 78.1248 28.8502 0.963535 26.3682 3.55537 
-140.977 96.2919 15.5267 4.57524 -5.24123 65.6265 -0.022123 -2.86095 -0.494226 -0.0110546 8.22754 -0.98508 0.107805 14.821 -1.00839 -4.90361 -9.34226 -17.0405 9.06071 -6.00918 -19.0959 -108.489 -10.5576 91.458 22.8483 55.4843 23.504 51.9069 -19.2063 -0.639344 -8.15458 -16.3782 14.3783 107.326 -3.62239 -93.1694 -23.5048 53.822 26.7271 -95.5044 1.57107 0.186922 -7.44008 -23.0957 -25.6172 -156.586 -0.978566 -21.7837 -1.4406 -22.1131 0.63347 -16.4803 71.6409 3.50454 -0.965274 26.367 -3.60229 173.927 8.58329 4.16378 6.02006 -28.8446 11.2188 -20.6227 77.3229 27.5792 0.963535 26.3682 3.55537 
-140.727 96.7325 15.1979 4.76488 -4.57167 64.1047 -0.0914654 -3.02232 -0.790426 -0.131516 7.90566 -1.55763 0.0553125 14.4977 -1.59355 -3.74259 -8.82801 -16.7674 8.09553 -5.89388 -18.4271 -107.158 -10.1998 91.4909 19.7159 58.0171 26.8639 47.8146 -19.6267 -0.729624 -9.19878 -14.1889 14.3309 108.772 -4.49863 -93.0969 -19.7689 57.3074 20.6232 -96.042 1.57155 0.180708 -9.2829 -24.3632 -25.3208 -157.843 -1.67395 -21.7257 -1.26649 -21.6076 0.649657 -15.8481 70.1649 2.73137 -0.965274 26.367 -3.60229 172.975 8.07589 2.55725 6.39857 -27.08 11.333 -18.7557 76.3754 25.9714 0.963535 26.3682 3.55537 
-140.581 96.8379 14.7631 4.73253 -4.48925 62.1451 0.102417 -3.07788 -1.21506 0.288119 7.79052 -2.47042 0.583327 14.3787 -2.52668 -3.47733 -9.70316 -15.9532 6.61478 -5.64022 -17.2709 -106.954 -10.4801 91.4112 15.6798 59.7029 29.6693 46.1468 -19.3285 -0.741827 -12.0762 -11.75 12.755 109.857 -4.91429 -93.093 -15.399 59.12 13.1318 -96.9348 1.5535 0.171035 -10.4568 -26.0829 -24.778 -158.09 -1.79221 -20.6944 -1.05859 -23.3044 1.15161 -18.5354 70.9952 4.27132 -0.965274 26.367 -3.60229 172.798 8.31313 1.6452 6.00294 -26.5914 10.6336 -16.2624 76.1977 23.9238 0.963535 26.3682 3.55537 
-140.679 96.0007 13.9133 4.91396 -4.61977 58.8363 0.387996 -2.91781 -1.48905 0.887897 8.10145 -3.11149 1.25972 14.686 -3.18418 -4.33449 -11.3829 -14.7758 5.55115 -5.54633 -16.0456 -106.919 -10.9556 91.2913 12.1896 60.9338 33.269 45.4898 -19.1296 -0.742486 -13.4793 -10.8925 9.00016 109.793 -5.05711 -93.0482 -12.51 59.452 6.44016 -98.0678 1.55144 0.15766 -10.0504 -27.1114 -22.441 -158.549 -1.24097 -18.6332 0.294888 -29.0169 3.29509 -26.2689 74.9754 11.7594 -0.965274 26.367 -3.60229 172.561 11.423 -0.879198 6.30452 -30.9777 10.5548 -15.8491 77.904 24.3176 0.963535 26.3682 3.55537 
-140.778 94.3081 12.9636 5.86397 -5.35173 55.0734 0.602054 -2.4175 -1.73783 1.35653 9.09197 -3.68753 1.79887 15.6724 -3.78144 -4.04351 -13.0276 -13.7025 3.71596 -6.53181 -14.5152 -105.416 -10.8826 91.2506 8.36319 62.3302 37.5346 46.3452 -18.7827 -0.71371 -12.947 -10.3689 6.83251 111.224 -4.66649 -93.297 -11.0396 57.1515 2.20201 -99.992 1.69443 0.12966 -10.2145 -27.1648 -21.3628 -159.624 -1.63171 -16.5505 2.46323 -35.8261 5.99451 -39.5405 79.8557 26.4012 -0.965274 26.367 -3.60229 172.189 15.2048 -0.398371 5.47846 -38.3954 8.03296 -10.791 80.7756 18.817 0.963535 26.3682 3.55537 
-140.842 93.0208 12.4572 7.15901 -6.54571 51.9831 0.763976 -1.81109 -2.09469 1.74103 10.2922 -4.47182 2.2802 16.8661 -4.59734 -4.14442 -14.1924 -12.6591 2.96346 -7.68695 -13.3403 -104.273 -10.5082 91.2893 4.82526 62.3041 41.8868 48.3775 -18.3361 -0.661516 -12.2952 -9.85701 8.33945 112.339 -4.30077 -93.5168 -11.1813 55.4833 1.50408 -102.927 2.16233 0.077979 -10.5867 -26.4164 -20.2217 -160.447 -4.80639 -13.9299 1.62853 -36.6333 4.35889 -56.4888 83.8374 42.6667 -0.965274 26.367 -3.60229 172.587 16.8156 -0.0897838 3.61043 -43.1999 5.13528 -4.77824 82.3875 12.061 0.963535 26.3682 3.55537 
-140.8 92.0907 11.7085 6.93297 -7.48973 50.1628 1.058 -1.5731 -2.55389 2.39358 10.7438 -5.50228 3.05784 17.307 -5.66197 -3.77848 -15.1644 -12.1768 1.62911 -8.50996 -12.5409 -104.877 -10.8629 91.233 4.64859 59.691 45.3338 50.1866 -17.9402 -0.613417 -10.801 -9.70954 10.837 113.553 -4.71526 -93.5165 -13.0107 54.3861 3.76851 -105.335 2.69208 0.0297162 -10.0301 -26.6012 -19.1773 -159.962 -7.27857 -15.5103 0.906811 -35.1452 4.00879 -109.177 85.2153 95.1024 -0.965274 26.367 -3.60229 173.318 18.4839 -1.16943 3.81803 -45.6483 4.86801 -3.30613 82.7716 10.1775 0.963535 26.3682 3.55537 
-140.747 92.4757 11.0561 6.39661 -7.12949 49.3691 1.16574 -1.77768 -3.00763 2.64167 10.3173 -6.44463 3.41719 16.8689 -6.62552 -3.59145 -13.8184 -11.9512 0.917436 -9.85031 -12.291 -105.859 -10.6871 91.3144 6.10572 57.8919 46.8006 48.2756 -17.8494 -0.64156 -8.81355 -9.87213 12.7768 113.415 -5.15912 -93.367 -14.1143 55.4941 7.10847 -106.397 2.79305 0.0119747 -8.17022 -25.9317 -17.9204 -160.976 -8.81061 -17.2793 0.523978 -31.2821 3.45381 -114.304 85.4529 100.7 -0.965274 26.367 -3.60229 172.968 18.7748 -1.47292 4.11667 -43.9334 4.81687 -1.59525 81.3163 8.28454 0.963535 26.3682 3.55537 
-140.598 94.1735 10.2874 5.85492 -5.91407 49.1619 1.11931 -2.1203 -3.26547 2.54636 9.62949 -6.93507 3.37759 16.1744 -7.11936 -4.08016 -14.8704 -12.2054 1.10086 -7.91807 -12.5607 -105.451 -10.7703 91.2779 9.59273 58.3683 46.117 44.1585 -17.8306 -0.702281 -9.44976 -9.46731 12.7659 112.396 -5.60437 -93.1366 -14.3543 57.6628 10.7922 -106.48 2.99847 0.00459385 -7.76032 -25.0566 -17.4565 -162.463 -8.9994 -16.0041 -1.41589 -27.2202 1.52158 -51.7264 84.9906 38.7664 -0.965274 26.367 -3.60229 172.059 16.91 -3.09881 4.79184 -37.2342 5.93032 -2.96366 77.582 9.92224 0.963535 26.3682 3.55537 
-140.621 96.0322 9.53527 4.55139 -4.06915 49.2504 1.01722 -2.72415 -3.23259 2.29506 8.43095 -6.81548 3.10734 14.9776 -6.97903 -3.50836 -16.0547 -13.2607 0.330637 -5.66848 -13.1928 -104.354 -10.21 91.3595 12.0775 59.0487 44.6744 41.6572 -17.7183 -0.729644 -10.5378 -8.1679 13.9694 111.118 -5.71064 -92.9895 -13.3922 59.6881 13.8525 -106.152 3.33128 -0.00100378 -6.86489 -23.7649 -16.9532 -163.31 -7.44356 -17.4217 -2.01986 -24.0707 2.141 -30.2226 79.3139 17.0855 -0.965274 26.367 -3.60229 171.399 15.1445 -5.94625 5.39124 -28.5475 7.77968 -6.55254 72.9376 13.1831 0.963535 26.3682 3.55537 
-140.871 96.855 8.64755 3.12965 -2.8359 49.281 0.966003 -3.17152 -3.00156 2.14604 7.54539 -6.32223 2.89691 14.0988 -6.46201 -3.02432 -16.2543 -14.4745 -0.139131 -6.13601 -14.1596 -102.625 -9.94851 91.3362 13.7088 58.8917 43.1115 44.4466 -17.4754 -0.682341 -12.5294 -6.38595 17.442 109.116 -6.15727 -92.6906 -14.9177 61.3386 16.9296 -105.223 3.08281 0.0193039 -5.12343 -22.9593 -21.0255 -163.136 -4.97093 -17.0973 -1.68423 -24.1841 3.80445 -34.8042 76.6518 18.9262 -0.965274 26.367 -3.60229 171.083 15.1594 -4.74048 5.46879 -24.5288 9.86927 -10.9702 69.8398 16.5255 0.963535 26.3682 3.55537 
